<svg id="Hachi" xmlns="http://www.w3.org/2000/svg" viewBox="0 0 70 44"><defs><style>.cls-1{fill:#d1d5d5;}</style></defs><title>logo_Hachi</title><polygon class="cls-1" points="3.54 13.2 6.56 13.2 6.56 20.14 12.5 20.14 12.5 13.2 15.49 13.2 15.49 29.7 12.5 29.7 12.5 22.76 6.56 22.76 6.56 29.7 3.54 29.7 3.54 13.2"/><path class="cls-1" d="M23.33,17.4a9.56,9.56,0,0,0-5,1.58l1.13,2.08a6.83,6.83,0,0,1,3.3-1.13,1.87,1.87,0,0,1,2,2.08c-4.82.51-6.9,1.86-6.9,4.43A3.41,3.41,0,0,0,21.45,30a5.65,5.65,0,0,0,3.62-1.59h.06l.24,1.29h2.57v-7C27.94,19.22,26.37,17.4,23.33,17.4Zm1.46,9a3.19,3.19,0,0,1-2.32,1.18c-.92,0-1.58-.41-1.58-1.35s1-1.87,3.9-2.26Z"/><path class="cls-1" d="M29.93,23.72a6,6,0,0,1,6.13-6.32,5.24,5.24,0,0,1,3.49,1.33l-1.5,2A2.76,2.76,0,0,0,36.21,20c-1.82,0-3.07,1.48-3.07,3.75s1.25,3.71,3,3.71a3.73,3.73,0,0,0,2.34-1l1.24,2.08A5.94,5.94,0,0,1,35.78,30C32.46,30,29.93,27.69,29.93,23.72Z"/><path class="cls-1" d="M55.69,17.7h3.13v12H55.69Z"/><path class="cls-1" d="M45.1,19.16v-6H42V29.7H45.1V21.82s1.09-1.72,2.51-1.72c1.18,0,1.69.82,1.69,1.91V29.7h3.15V21.56c0-2.26-1.11-4.16-3.71-4.16A5.1,5.1,0,0,0,45.1,19.16Z"/><circle class="cls-1" cx="57.26" cy="13.2" r="1.88"/></svg>