<svg id="_150x46" data-name="150x46" xmlns="http://www.w3.org/2000/svg" viewBox="0 0 140.46 35.08"><title>puppy_logo</title><path d="M82.31,22.42a2.74,2.74,0,0,1-2.93,3c-1.61,0-2.38-1-2.38-2.6V16.18H74.23V23c0,3.13,1.76,4.91,4.28,4.91a4.13,4.13,0,0,0,3.86-2.36l-.06,2.11h2.77V16.18H82.31Zm-20.1-6.49a4.36,4.36,0,0,0-4.08,2.38l.08-2.13H55.42V33.49h2.79V25.71a4.23,4.23,0,0,0,3.94,2.22c3,0,5.4-2.55,5.4-6S65.17,15.93,62.21,15.93Zm-.77,9.56A3.26,3.26,0,0,1,58.1,21.9a3.24,3.24,0,0,1,3.34-3.5,3.19,3.19,0,0,1,3.26,3.5C64.7,24.07,63.44,25.49,61.44,25.49Zm76.36-9.31-2.46,5.75a12.23,12.23,0,0,0-.63,2.38,14.26,14.26,0,0,0-.66-2.38l-2.41-5.75h-3.07l4.71,10.46-3,6.85h2.85l7.53-17.31Zm-19.66-.25a4.34,4.34,0,0,0-4.08,2.38l.08-2.13h-2.8V33.49h2.8V25.71a4.21,4.21,0,0,0,3.94,2.22c3,0,5.4-2.55,5.4-6S121.09,15.93,118.14,15.93Zm-.77,9.56A3.26,3.26,0,0,1,114,21.9a3.23,3.23,0,0,1,3.34-3.5,3.19,3.19,0,0,1,3.26,3.5C120.63,24.07,119.37,25.49,117.37,25.49ZM99.21,15.93a4.36,4.36,0,0,0-4.08,2.38l.08-2.13H92.42V33.49h2.79V25.71a4.24,4.24,0,0,0,4,2.22c3,0,5.39-2.55,5.39-6S102.17,15.93,99.21,15.93Zm-.77,9.56A3.26,3.26,0,0,1,95.1,21.9a3.24,3.24,0,0,1,3.34-3.5,3.19,3.19,0,0,1,3.26,3.5C101.7,24.07,100.44,25.49,98.44,25.49Z" transform="translate(-0.21 -4.4)"/><path d="M32.65,39.49l2.84-13.44H30L21.82,31l4.81,2.93a1,1,0,0,1,.49.86c0,1.45,0,4.7,0,4.7Z" transform="translate(-0.21 -4.4)"/><polygon points="31.72 4.73 29.51 0 25.65 6.7 23.73 10.02 24.41 11.12 29.96 20.15 35.65 20.15 36.64 15.2 41.86 12.58 42.5 7.28 31.72 4.73 31.72 4.73"/><path d="M13.61,34.8A1,1,0,0,1,14.1,34L20,30.36h0l8.73-5.31-6-9.83L.21,17.57l4,3.32,3.91,18.6h5.5Z" transform="translate(-0.21 -4.4)"/></svg>